<svg xmlns="http://www.w3.org/2000/svg" xmlns:xlink="http://www.w3.org/1999/xlink" width="1920" height="1080" viewBox="0 0 1920 1080"><defs><style>.a{clip-path:url(#n);}.b{fill:url(#a);}.c{fill:url(#d);}.d{fill:url(#g);}.e{fill:url(#j);}.f{fill:#1a1a1a;}.g{filter:url(#k);}.h{filter:url(#h);}.i{filter:url(#e);}.j{filter:url(#b);}</style><linearGradient id="a" x1="0.5" x2="0.5" y2="1" gradientUnits="objectBoundingBox"><stop offset="0" stop-color="#3bbbff"/><stop offset="1" stop-color="#363eff"/></linearGradient><filter id="b" x="1482" y="-6" width="270" height="270" filterUnits="userSpaceOnUse"><feOffset dy="3" input="SourceAlpha"/><feGaussianBlur stdDeviation="3" result="c"/><feFlood flood-opacity="0.161"/><feComposite operator="in" in2="c"/><feComposite in="SourceGraphic"/></filter><linearGradient id="d" x1="0.5" x2="0.5" y2="1" gradientUnits="objectBoundingBox"><stop offset="0" stop-color="#863bff"/><stop offset="1" stop-color="#36ff9b"/></linearGradient><filter id="e" x="1734" y="803" width="372" height="372" filterUnits="userSpaceOnUse"><feOffset dy="3" input="SourceAlpha"/><feGaussianBlur stdDeviation="3" result="f"/><feFlood flood-opacity="0.161"/><feComposite operator="in" in2="f"/><feComposite in="SourceGraphic"/></filter><linearGradient id="g" x1="0.5" x2="0.5" y2="1" gradientUnits="objectBoundingBox"><stop offset="0" stop-color="#ff3939"/><stop offset="1" stop-color="#801d75"/></linearGradient><filter id="h" x="-228.229" y="672.771" width="456.459" height="456.459" filterUnits="userSpaceOnUse"><feOffset dy="3" input="SourceAlpha"/><feGaussianBlur stdDeviation="3" result="i"/><feFlood flood-opacity="0.161"/><feComposite operator="in" in2="i"/><feComposite in="SourceGraphic"/></filter><linearGradient id="j" x1="0.5" x2="0.5" y2="1" gradientUnits="objectBoundingBox"><stop offset="0" stop-color="#fff739"/><stop offset="1" stop-color="#f77516"/></linearGradient><filter id="k" x="370.313" y="149.313" width="145.374" height="145.373" filterUnits="userSpaceOnUse"><feOffset dy="3" input="SourceAlpha"/><feGaussianBlur stdDeviation="3" result="l"/><feFlood flood-opacity="0.161"/><feComposite operator="in" in2="l"/><feComposite in="SourceGraphic"/></filter><clipPath id="n"><rect width="1920" height="1080"/></clipPath></defs><g id="m" class="a"><rect class="f" width="1920" height="1080"/><g class="j" transform="matrix(1, 0, 0, 1, 0, 0)"><circle class="b" cx="126" cy="126" r="126" transform="translate(1491)"/></g><g class="i" transform="matrix(1, 0, 0, 1, 0, 0)"><circle class="c" cx="177" cy="177" r="177" transform="translate(1743 809)"/></g><g class="h" transform="matrix(1, 0, 0, 1, 0, 0)"><rect class="d" width="358" height="358" rx="15" transform="matrix(0.97, 0.26, -0.26, 0.97, -126.57, 678.77)"/></g><g class="g" transform="matrix(1, 0, 0, 1, 0, 0)"><rect class="e" width="104" height="104" rx="15" transform="matrix(0.97, 0.26, -0.26, 0.97, 406.23, 155.31)"/></g></g></svg>