<svg xmlns="http://www.w3.org/2000/svg" xmlns:xlink="http://www.w3.org/1999/xlink" width="375" height="812" viewBox="0 0 375 812"><defs><style>.a{clip-path:url(#n);}.b{fill:#1a1a1a;}.c{fill:url(#a);}.d{fill:url(#d);}.e{fill:url(#g);}.f{fill:url(#j);}.g{fill:#fff;}.h{filter:url(#k);}.i{filter:url(#h);}.j{filter:url(#e);}.k{filter:url(#b);}</style><linearGradient id="a" x1="0.5" x2="0.5" y2="1" gradientUnits="objectBoundingBox"><stop offset="0" stop-color="#3bbbff"/><stop offset="1" stop-color="#363eff"/></linearGradient><filter id="b" x="240" y="-6" width="124" height="124" filterUnits="userSpaceOnUse"><feOffset dy="3" input="SourceAlpha"/><feGaussianBlur stdDeviation="3" result="c"/><feFlood flood-opacity="0.161"/><feComposite operator="in" in2="c"/><feComposite in="SourceGraphic"/></filter><linearGradient id="d" x1="0.5" x2="0.5" y2="1" gradientUnits="objectBoundingBox"><stop offset="0" stop-color="#863bff"/><stop offset="1" stop-color="#36ff9b"/></linearGradient><filter id="e" x="283" y="592" width="232" height="232" filterUnits="userSpaceOnUse"><feOffset dy="3" input="SourceAlpha"/><feGaussianBlur stdDeviation="3" result="f"/><feFlood flood-opacity="0.161"/><feComposite operator="in" in2="f"/><feComposite in="SourceGraphic"/></filter><linearGradient id="g" x1="0.5" x2="0.5" y2="1" gradientUnits="objectBoundingBox"><stop offset="0" stop-color="#ff3939"/><stop offset="1" stop-color="#801d75"/></linearGradient><filter id="h" x="-93.406" y="556.594" width="196.813" height="196.813" filterUnits="userSpaceOnUse"><feOffset dy="3" input="SourceAlpha"/><feGaussianBlur stdDeviation="3" result="i"/><feFlood flood-opacity="0.161"/><feComposite operator="in" in2="i"/><feComposite in="SourceGraphic"/></filter><linearGradient id="j" x1="0.5" x2="0.5" y2="1" gradientUnits="objectBoundingBox"><stop offset="0" stop-color="#fff739"/><stop offset="1" stop-color="#f77516"/></linearGradient><filter id="k" x="26.056" y="73.056" width="71.889" height="71.889" filterUnits="userSpaceOnUse"><feOffset dy="3" input="SourceAlpha"/><feGaussianBlur stdDeviation="3" result="l"/><feFlood flood-opacity="0.161"/><feComposite operator="in" in2="l"/><feComposite in="SourceGraphic"/></filter><clipPath id="n"><rect width="375" height="812"/></clipPath></defs><g id="m" class="a"><rect class="g" width="375" height="812"/><rect class="b" width="375" height="812"/><g class="k" transform="matrix(1, 0, 0, 1, 0, 0)"><circle class="c" cx="53" cy="53" r="53" transform="translate(249)"/></g><g class="j" transform="matrix(1, 0, 0, 1, 0, 0)"><circle class="d" cx="107" cy="107" r="107" transform="translate(292 598)"/></g><g class="i" transform="matrix(1, 0, 0, 1, 0, 0)"><rect class="e" width="146" height="146" rx="15" transform="matrix(0.97, 0.26, -0.26, 0.97, -46.62, 562.59)"/></g><g class="h" transform="matrix(1, 0, 0, 1, 0, 0)"><rect class="f" width="44" height="44" rx="7" transform="matrix(0.97, 0.26, -0.26, 0.97, 46.44, 79.06)"/></g></g></svg>